# xmcd
#
# Track frame offsets:
#	150
#	15829
#	33879
#	45082
#	63525
#	86708
#	102464
#	112677
#	135703
#	150245
#	162696
#	179032
#	194887
#
# Disc length: 2822 seconds
#
# Revision: 0
# Processed by: cddbd v1.5.1PL2 Copyright (c) Steve Scherf et al.
# Submitted via: dBpowerAMP V4.0
#
DISCID=a40b040d
DTITLE=Blue Voodoo - Sparkle and Shine
DYEAR=2004
DGENRE=Blues
TTITLE0=Walking Shoes
TTITLE1=In the End
TTITLE2=I Like It That Way
TTITLE3=Railway Blues
TTITLE4=Full Circle
TTITLE5=Voodoo Man
TTITLE6=Sparkle and Shine
TTITLE7=Come To Me Baby
TTITLE8=Goddam Thing
TTITLE9=Today
TTITLE10=Wake Up
TTITLE11=Tow the Line
TTITLE12=Power of Love
EXTD=
EXTT0=
EXTT1=
EXTT2=
EXTT3=
EXTT4=
EXTT5=
EXTT6=
EXTT7=
EXTT8=
EXTT9=
EXTT10=
EXTT11=
EXTT12=
PLAYORDER=
